<svg xmlns="http://www.w3.org/2000/svg" aria-hidden="true" style="position:absolute;width:0;height:0;overflow:hidden">
  <defs>
    <!--Header icons-->
    <symbol id="logo" viewBox="0 0 145 32">
      <path d="M5.176.116v.332h2.681c1.899 0 2.234.369 2.234 2.251v19.299c0 7.343-1.675 8.893-3.611 9.225-1.675.295-3.984-1.033-4.84-1.328-.894-.295-1.564-.148-1.638.664-.037.738.782 1.107 1.713 1.255 1.229.221 3.798.037 4.877-.258 1.713-.443 5.92-2.103 5.92-9.816V2.699c0-1.882.335-2.251 2.234-2.251h.745V.116H5.178zm15.196 22.436c-1.043 0-1.899.812-1.899 1.808s.856 1.808 1.899 1.808c1.043 0 1.899-.812 1.899-1.808s-.856-1.808-1.899-1.808zM36.481.116H25.237v.332h.707c1.899 0 2.234.369 2.234 2.251V23.4c0 1.845-.335 2.251-2.234 2.251h-.707v.295h11.244c9.27 0 14.446-5.793 14.446-12.915S45.752.116 36.481.116zm-.67 25.388h-5.212V.559h5.212c8.861 0 12.472 5.683 12.472 12.473s-3.611 12.472-12.472 12.472zm20.011-2.952c-1.042 0-1.899.812-1.899 1.808s.856 1.808 1.899 1.808c1.042 0 1.899-.812 1.899-1.808s-.856-1.808-1.899-1.808zM89.594.116v.332h.745c1.899 0 2.978.369 2.234 2.214l-7.856 20.074-5.92-13.764 2.457-6.31C81.961.928 82.929.448 84.828.448h.745V.116h-6.404v.332h.037c1.899 0 2.494 0 1.787 1.882l-2.42 6.126-2.457-5.793C75.409.929 75.222.449 77.121.449h.745V.117h-8.042v.332h.41c1.899 0 2.383.554 3.276 2.214l3.835 8.967-4.356 11.107-8.6-20.074C63.682.929 63.495.449 65.394.449h.745V.117h-8.042v.332h.447c1.862 0 2.346.554 3.239 2.214l9.941 23.285h.447l5.398-13.801 5.882 13.801h.447l9.084-23.285C93.689.929 94.657.449 96.556.449h.745V.117h-7.707zm13.723 7.712c-5.771 0-9.717 3.838-9.717 9.188s3.947 9.151 9.717 9.151c5.734 0 9.717-3.801 9.717-9.151s-3.984-9.188-9.717-9.188zm0 18.008c-4.617 0-7.335-3.543-7.335-8.819s2.718-8.819 7.335-8.819 7.335 3.543 7.335 8.819-2.718 8.819-7.335 8.819zm22.434-18.008c-5.771 0-9.718 3.838-9.718 9.188s3.946 9.151 9.718 9.151c5.734 0 9.717-3.801 9.717-9.151s-3.983-9.188-9.717-9.188zm0 18.008c-4.617 0-7.335-3.543-7.335-8.819s2.718-8.819 7.335-8.819c4.616 0 7.334 3.543 7.334 8.819s-2.718 8.819-7.334 8.819zm18.448-.184c-1.899 0-2.234-.406-2.234-2.251V.116h-5.361v.332h.744c1.862 0 2.234.369 2.234 2.214V23.4c0 1.845-.373 2.251-2.234 2.251h-.744v.295h8.339v-.295h-.744z"/>
    </symbol>
    <symbol id="like" viewBox="0 0 32 32">
       <path stroke-linecap="round" stroke-linejoin="round" stroke-width="1.333" d="M10 5.333a7.333 7.333 0 0 0-7.333 7.333c0 7.333 8.667 14 13.333 15.551C20.667 26.666 29.333 20 29.333 12.666A7.333 7.333 0 0 0 16 8.449a7.313 7.313 0 0 0-6-3.116z"/>
    </symbol>
    <symbol id="search" viewBox="0 0 32 32">
      <path stroke-miterlimit="10" stroke-width="1.28" d="M13.818 4a9.819 9.819 0 1 0 0 19.638 9.819 9.819 0 0 0 0-19.638z"/>
      <path stroke-linecap="round" stroke-miterlimit="10" stroke-width="1.28" d="m21.145 21.145 6.857 6.857"/>
    </symbol>
    <symbol id="account" viewBox="0 0 32 32">
      <path d="M15.335 18.665c5.523 0 10 2.089 10 4.667v3.333h-20v-3.333c0-2.577 4.477-4.667 10-4.667zm8.667 4.667c0-1.84-3.88-3.333-8.667-3.333s-8.667 1.493-8.667 3.333v2h17.333v-2zM15.335 6.665a4.667 4.667 0 1 1 0 9.334 4.667 4.667 0 0 1 0-9.334zm0 1.333a3.333 3.333 0 1 0 0 6.667 3.333 3.333 0 0 0 0-6.667z"/>
    </symbol>
    <symbol id="purchases" viewBox="0 0 32 32">
      <path d="M14.981 3.6c-2.194.394-4.012 2.231-4.381 4.431l-.075.438-1.531.031c-1.419.031-1.544.044-1.781.169a1.595 1.595 0 0 0-.688.75c-.106.256-1.919 18.231-1.888 18.719.031.469.287.887.7 1.144l.306.188h20.712l.306-.188c.413-.256.669-.675.7-1.144.031-.488-1.781-18.462-1.887-18.719a1.595 1.595 0 0 0-.688-.75c-.238-.125-.363-.137-1.781-.169l-1.531-.031-.075-.438a5.367 5.367 0 0 0-1.462-2.844c-1.3-1.344-3.113-1.919-4.956-1.587zm2.175 1.056c1.181.319 2.256 1.194 2.819 2.294.2.4.462 1.206.462 1.437 0 .106-.231.113-4.438.113s-4.438-.006-4.438-.113c0-.219.256-1.031.45-1.406a4.561 4.561 0 0 1 3.113-2.394c.506-.106 1.512-.069 2.031.069zm7.25 4.988.163.137.906 9c.494 4.95.9 9.094.9 9.206a.47.47 0 0 1-.156.356l-.15.156H5.932l-.15-.156c-.119-.113-.156-.212-.156-.419.006-.15.406-4.287.9-9.2l.894-8.938.338-.287h16.488l.163.144z"/>
      <path d="M10.331 12.656a1.488 1.488 0 0 0-.756 1.787c.088.294.431.713.7.85.238.125.287.188.287.419 0 .269.175.931.381 1.419.4.988 1.219 1.95 2.138 2.519 3.175 1.981 7.281.331 8.238-3.306.063-.244.119-.525.119-.625 0-.238.044-.3.288-.425.431-.219.775-.8.775-1.294 0-.781-.712-1.5-1.488-1.5-.794 0-1.512.713-1.512 1.488 0 .494.35 1.094.775 1.319.113.063.163.144.163.256 0 .313-.194.913-.481 1.5-.238.488-.375.681-.794 1.094-.587.581-1.012.844-1.769 1.113-.512.181-.606.194-1.394.194-.744 0-.906-.025-1.344-.169-.713-.238-1.238-.563-1.819-1.137-.412-.413-.556-.606-.794-1.094-.287-.587-.481-1.188-.481-1.5 0-.113.05-.194.162-.256.269-.137.625-.594.713-.9.113-.406.05-.85-.162-1.2a1.512 1.512 0 0 0-1.944-.55zm1.013 1A.493.493 0 0 1 11 14.5c-.256 0-.5-.244-.5-.5s.244-.5.5-.5c.119 0 .25.056.344.156zm10 0c.1.094.156.225.156.344s-.056.25-.156.344c-.094.1-.225.156-.344.156s-.25-.056-.344-.156c-.1-.094-.156-.225-.156-.344s.056-.25.156-.344c.094-.1.225-.156.344-.156s.25.056.344.156z"/>
    </symbol>
    <symbol id="arrow" viewBox="0 0 32 32">
      <path d="m15.998 19.331-6.8-6.8.667-.667 6.133 6.133 6.133-6.133.667.667-6.8 6.8z"/>
    </symbol>
    <!-- Hero icons -->
    <symbol id="slide" viewBox="0 0 2720 32">
      <path fill="#dcdcdc" d="M16 0h2688c8.837 0 16 7.163 16 16s-7.163 16-16 16H16C7.163 32 0 24.837 0 16S7.163 0 16 0z" style="fill:var(--color1, #dcdcdc)"/>
    </symbol>
    <symbol id="catalog" viewBox="0 0 244 32">
      <path fill="#fff" d="M241.414 18.102a2 2 0 0 0 0-2.828L228.686 2.546a2 2 0 1 0-2.828 2.828l11.314 11.314-11.314 11.314a2 2 0 1 0 2.828 2.828l12.728-12.728zM0 18.688h240v-4H0v4z" style="fill:var(--color2, #fff)"/>
    </symbol>
    <!--Catalog icon (Filter)-->
    <symbol id="filter" viewBox="0 0 32 32">
      <path d="M4 24h8v-2.667H4V24zM4 8v2.667h24V8H4zm0 9.333h16v-2.667H4v2.667z"/>
    </symbol>
  </defs>
</svg>